# xmcd
#
# Track frame offsets: 
#        150
#        15332
#        31373
#        46629
#        63577
#        79698
#        99303
#        113632
#        136309
#        163899
#        181929
#        207141
#        220514
#        240543
#
# Disc length: 3435 seconds
#
# Revision: 0
# Processed by: cddbd v1.5.2PL0 Copyright (c) Steve Scherf et al.
# Submitted via: ExactAudioCopy v1.3
#
DISCID=a90d690e
DTITLE=Various Artist - Soul Bag Sampler, Jun 2011
DYEAR=2011
DGENRE=Blues
TTITLE0=Charles Bradley - The world (is going up in flames)
TTITLE1=John-Alex Mason feat. Cody Burnside - Gone so long
TTITLE2=Raphael Saadiq - Radio
TTITLE3=Gregg Allman - Blind man
TTITLE4=Eden Brent - Later than you think
TTITLE5=Donald R. Johnson - It's time
TTITLE6=Stevie J - Yes I love da blues
TTITLE7=The Rance Allen Group feat. Vanessa Bell Armstrong - It's your
TTITLE7=time
TTITLE8=Joe Krown - Russell Batiste Jr* - Walter "Wolfman" Washington 
TTITLE8=/ Dame dreaming
TTITLE9=Chicago Blues A Living History - Stockyard blues
TTITLE10=Big Dez - Take me to South Carolina
TTITLE11=Andy J. Forest - Poor you
TTITLE12=H.F., Jocelyn Mathieu - Friends
TTITLE13=Niko Riippa - Bec a gaz et guitare
EXTD=
EXTT0=
EXTT1=
EXTT2=
EXTT3=
EXTT4=
EXTT5=
EXTT6=
EXTT7=
EXTT8=
EXTT9=
EXTT10=
EXTT11=
EXTT12=
EXTT13=
PLAYORDER=
